<svg width="412" height="532" viewBox="0 0 412 532" fill="none" xmlns="http://www.w3.org/2000/svg">
<g filter="url(#filter0_dd_26_1396)">
<g clip-path="url(#clip0_26_1396)">
<rect x="26" y="26" width="360" height="480" rx="29.9978" fill="white"/>
<rect x="181.522" y="214.658" width="143.394" height="134.959" rx="12.4698" transform="rotate(-22.7913 181.522 214.658)" fill="#6EE4FE"/>
<rect x="123.475" y="302.05" width="165.289" height="155.566" rx="12.4698" transform="rotate(14.6993 123.475 302.05)" fill="#00C1FF"/>
<g filter="url(#filter1_b_26_1396)">
<path fill-rule="evenodd" clip-rule="evenodd" d="M56 26C39.4315 26 26 39.4315 26 56V476C26 492.569 39.4315 506 56 506H356C372.569 506 386 492.569 386 476V56C386 39.4315 372.569 26 356 26H56ZM239.164 224.485C237.813 225.395 236.045 225.395 234.694 224.485L171.302 181.778C155.36 171.039 133.892 182.462 133.892 201.683L133.892 387.178C133.892 406.399 155.36 417.822 171.302 407.082L234.698 364.373C236.049 363.463 237.817 363.463 239.168 364.373L302.56 407.08C318.501 417.819 339.969 406.397 339.969 387.175L339.969 201.68C339.969 182.459 318.501 171.036 302.56 181.776L239.164 224.485Z" fill="#CDCDCD" fill-opacity="0.1"/>
</g>
<g style="mix-blend-mode:multiply" opacity="0.3" filter="url(#filter2_i_26_1396)">
<path fill-rule="evenodd" clip-rule="evenodd" d="M234.694 224.485C236.045 225.395 237.813 225.395 239.164 224.485L302.56 181.776C318.501 171.036 339.969 182.459 339.969 201.68L339.969 387.175C339.969 406.397 318.501 417.819 302.56 407.08L239.168 364.373C237.817 363.463 236.049 363.463 234.698 364.373L171.302 407.082C155.36 417.822 133.892 406.399 133.892 387.178L133.892 201.683C133.892 182.462 155.36 171.039 171.302 181.778L234.694 224.485Z" fill="white"/>
</g>
</g>
</g>
<defs>
<filter id="filter0_dd_26_1396" x="0.00117779" y="0" width="411.999" height="531.999" filterUnits="userSpaceOnUse" color-interpolation-filters="sRGB">
<feFlood flood-opacity="0" result="BackgroundImageFix"/>
<feColorMatrix in="SourceAlpha" type="matrix" values="0 0 0 0 0 0 0 0 0 0 0 0 0 0 0 0 0 0 127 0" result="hardAlpha"/>
<feOffset dx="-10" dy="10"/>
<feGaussianBlur stdDeviation="7.99941"/>
<feColorMatrix type="matrix" values="0 0 0 0 0 0 0 0 0 0 0 0 0 0 0 0 0 0 0.1 0"/>
<feBlend mode="normal" in2="BackgroundImageFix" result="effect1_dropShadow_26_1396"/>
<feColorMatrix in="SourceAlpha" type="matrix" values="0 0 0 0 0 0 0 0 0 0 0 0 0 0 0 0 0 0 127 0" result="hardAlpha"/>
<feOffset dx="10" dy="-10"/>
<feGaussianBlur stdDeviation="8"/>
<feColorMatrix type="matrix" values="0 0 0 0 0 0 0 0 0 0 0 0 0 0 0 0 0 0 0.1 0"/>
<feBlend mode="normal" in2="effect1_dropShadow_26_1396" result="effect2_dropShadow_26_1396"/>
<feBlend mode="normal" in="SourceGraphic" in2="effect2_dropShadow_26_1396" result="shape"/>
</filter>
<filter id="filter1_b_26_1396" x="6" y="6" width="400" height="520" filterUnits="userSpaceOnUse" color-interpolation-filters="sRGB">
<feFlood flood-opacity="0" result="BackgroundImageFix"/>
<feGaussianBlur in="BackgroundImageFix" stdDeviation="10"/>
<feComposite in2="SourceAlpha" operator="in" result="effect1_backgroundBlur_26_1396"/>
<feBlend mode="normal" in="SourceGraphic" in2="effect1_backgroundBlur_26_1396" result="shape"/>
</filter>
<filter id="filter2_i_26_1396" x="133.892" y="177.64" width="216.077" height="243.579" filterUnits="userSpaceOnUse" color-interpolation-filters="sRGB">
<feFlood flood-opacity="0" result="BackgroundImageFix"/>
<feBlend mode="normal" in="SourceGraphic" in2="BackgroundImageFix" result="shape"/>
<feColorMatrix in="SourceAlpha" type="matrix" values="0 0 0 0 0 0 0 0 0 0 0 0 0 0 0 0 0 0 127 0" result="hardAlpha"/>
<feOffset dx="10" dy="10"/>
<feGaussianBlur stdDeviation="5.5"/>
<feComposite in2="hardAlpha" operator="arithmetic" k2="-1" k3="1"/>
<feColorMatrix type="matrix" values="0 0 0 0 0.219608 0 0 0 0 0.737255 0 0 0 0 0.929412 0 0 0 1 0"/>
<feBlend mode="normal" in2="shape" result="effect1_innerShadow_26_1396"/>
</filter>
<clipPath id="clip0_26_1396">
<rect x="26" y="26" width="360" height="480" rx="29.9978" fill="white"/>
</clipPath>
</defs>
</svg>
